# xmcd
#
# Track frame offsets:
#	150
#	15687
#	32952
#	48677
#	68065
#	85292
#	100210
#	117867
#	140355
#	159790
#	181437
#	198605
#	220545
#	239795
#	259142
#
# Disc length: 3698 seconds
#
# Revision: 3
# Processed by: cddbd v1.5.2PL0 Copyright (c) Steve Scherf et al.
# Submitted via: audiograbber 1.83.01
#
DISCID=d60e700f
DTITLE=MM6144 (MM) -  (MM)
DYEAR=1900
DGENRE=Blues
TTITLE0=Stevie Ray Vaughan - Pride And Joy (MM)
TTITLE1=Stevie Ray Vaughan - Cold Shot (MM)
TTITLE2=Stevie Ray Vaughan - House Is Rockin' (MM)
TTITLE3=Stevie Ray Vaughan - Crossfire (MM)
TTITLE4=Tha Fabulous Thunderbirds - Tuff Enuff (MM)
TTITLE5=Tha Fabulous Thunderbirds - Wrap It Up (MM)
TTITLE6=Robert Cray - Nothin' But A Woman (MM)
TTITLE7=Robert Cray - Foul Play (MM)
TTITLE8=B.B. King - Everyday I Have The Blues (MM)
TTITLE9=Jimmy Reed - Big Boss Man (MM)
TTITLE10=Muddy Waters - Hootchie Cootchie Man (MM)
TTITLE11=Allman Brothers - Stormy Monday Blues (MM)
TTITLE12=Jimmy Reed - You Got Me Running (MM)
TTITLE13=Freddy King - Down Home Blues (MM)
TTITLE14=Robert Johnson - Sweet Home Chicago (MM)
EXTD=
EXTT0=
EXTT1=
EXTT2=
EXTT3=
EXTT4=
EXTT5=
EXTT6=
EXTT7=
EXTT8=
EXTT9=
EXTT10=
EXTT11=
EXTT12=
EXTT13=
EXTT14=
PLAYORDER=
